<svg width="206" height="126" viewBox="0 0 206 126" fill="none" xmlns="http://www.w3.org/2000/svg">
<path d="M0.5 72.5C0.5 64.8333 3.33333 55.1667 9 43.5C14.6667 31.8333 22 21.6666 31 13C40 4.33332 49.3333 -6.91414e-06 59 -6.91414e-06C66.3333 -6.91414e-06 72.1667 1.66666 76.5 4.99999C80.8333 7.99999 83 13 83 20C83 25.3333 81.6667 29.1667 79 31.5C76.3333 33.5 73.3333 35 70 36C67 37 64.8333 37.8333 63.5 38.5C54.1667 43.5 49.5 50.1667 49.5 58.5C49.5 62.1666 51.1667 65.5 54.5 68.5C58.1667 71.1666 62.8333 72.5 68.5 72.5C74.1667 72.5 78.8333 71.3333 82.5 69C86.5 70.6667 89.5 72.8333 91.5 75.5C93.8333 78.1666 95 82.1667 95 87.5C95 94.1667 92.5 100.5 87.5 106.5C82.5 112.167 76.3333 116.833 69 120.5C61.6667 123.833 54.5 125.5 47.5 125.5C32.8333 125.5 21.3333 121 13 112C4.66667 102.667 0.5 89.5 0.5 72.5ZM111 72.5C111 64.8333 113.833 55.1667 119.5 43.5C125.167 31.8333 132.5 21.6666 141.5 13C150.5 4.33332 159.833 -6.91414e-06 169.5 -6.91414e-06C176.833 -6.91414e-06 182.667 1.66666 187 4.99999C191.333 7.99999 193.5 13 193.5 20C193.5 25.3333 192.167 29.1667 189.5 31.5C186.833 33.5 183.833 35 180.5 36C177.5 37 175.333 37.8333 174 38.5C164.667 43.5 160 50.1667 160 58.5C160 62.1666 161.667 65.5 165 68.5C168.667 71.1666 173.333 72.5 179 72.5C184.667 72.5 189.333 71.3333 193 69C197 70.6667 200 72.8333 202 75.5C204.333 78.1666 205.5 82.1667 205.5 87.5C205.5 94.1667 203 100.5 198 106.5C193 112.167 186.833 116.833 179.5 120.5C172.167 123.833 165 125.5 158 125.5C143.333 125.5 131.833 121 123.5 112C115.167 102.667 111 89.5 111 72.5Z" fill="#F1F1F1"/>
</svg>
